<svg xmlns="http://www.w3.org/2000/svg" xml:space="preserve" id="paper-plane" x="0" y="0" enable-background="new 0 0 1000 1000" version="1.1" viewBox="0 0 1000 1000">
  <path d="M964.36,28.04c-4.62-3.58-10.94-4.03-16.03-1.16L37.39,540.53c-4.67,2.63-7.51,7.62-7.4,12.98
		c0.12,5.37,3.18,10.23,7.96,12.65l230.66,116.96l91.22,281.82c0.02,0.04,0.03,0.07,0.04,0.11c0.06,0.16,0.12,0.32,0.18,0.48
		c0.09,0.24,0.18,0.48,0.28,0.72c0.07,0.16,0.14,0.3,0.2,0.45c0.16,0.32,0.32,0.64,0.48,0.94c0.03,0.05,0.06,0.11,0.09,0.15
		c0.2,0.36,0.44,0.71,0.67,1.05c0.07,0.1,0.14,0.18,0.21,0.28c0.18,0.26,0.39,0.51,0.6,0.76c0.07,0.09,0.14,0.16,0.2,0.25
		c0.28,0.31,0.56,0.61,0.86,0.89c0.05,0.05,0.1,0.09,0.15,0.13c0.26,0.24,0.52,0.47,0.8,0.69c0.12,0.09,0.22,0.17,0.34,0.25
		c0.23,0.18,0.48,0.35,0.73,0.51c0.11,0.07,0.21,0.15,0.32,0.21c0.33,0.21,0.67,0.4,1.02,0.58c0.14,0.07,0.27,0.14,0.41,0.19
		c0.25,0.12,0.5,0.23,0.76,0.33c0.15,0.07,0.3,0.13,0.45,0.18c0.34,0.13,0.68,0.23,1.02,0.33c0.11,0.04,0.2,0.07,0.31,0.09
		c0.36,0.1,0.73,0.18,1.1,0.25c0.13,0.02,0.26,0.04,0.4,0.06c0.13,0.02,0.26,0.05,0.4,0.07c0.26,0.03,0.52,0.06,0.78,0.08
		c0.03,0,0.05,0,0.08,0.01h0.03c0.32,0.02,0.63,0.03,0.95,0.03c0.01,0,0.01,0,0.01,0c0.01,0,0.01,0,0.02,0c0.41,0,0.8-0.03,1.2-0.06
		c0.12-0.01,0.24-0.02,0.36-0.04c0.38-0.04,0.76-0.09,1.12-0.16c0.11-0.02,0.2-0.05,0.3-0.07c0.29-0.07,0.58-0.14,0.87-0.21
		c0.14-0.04,0.28-0.09,0.43-0.13c0.34-0.11,0.67-0.22,1-0.35c0.11-0.04,0.2-0.09,0.31-0.14c0.27-0.11,0.54-0.23,0.81-0.37
		c0.12-0.06,0.23-0.12,0.34-0.17c0.34-0.17,0.67-0.37,1-0.57c0.03-0.02,0.07-0.04,0.1-0.07c0.31-0.19,0.6-0.41,0.89-0.62
		c0.08-0.06,0.16-0.12,0.23-0.18c0.62-0.48,1.2-1.03,1.74-1.62c0.07-0.09,0.15-0.16,0.21-0.24c0.21-0.24,0.42-0.49,0.61-0.75
		c0.05-0.08,0.11-0.15,0.16-0.21c0.18-0.26,0.37-0.52,0.54-0.79l104.58-164.81l230.03,111.91c2.01,0.98,4.18,1.46,6.36,1.46
		c2.06,0,4.13-0.44,6.06-1.32c3.94-1.81,6.88-5.29,8-9.5L969.53,43.27C971.02,37.61,968.99,31.61,964.36,28.04z M377.17,728.75
		c0,0.01-0.01,0.03-0.02,0.04c-0.31,0.4-0.6,0.81-0.86,1.24c-0.08,0.13-0.14,0.25-0.21,0.37c-0.18,0.33-0.37,0.65-0.53,0.99
		c-0.07,0.16-0.14,0.3-0.2,0.46c-0.14,0.32-0.27,0.64-0.39,0.97c-0.06,0.16-0.12,0.34-0.17,0.51c-0.1,0.31-0.18,0.62-0.26,0.94
		c-0.05,0.2-0.09,0.4-0.14,0.6c-0.06,0.29-0.11,0.58-0.15,0.88c-0.03,0.23-0.06,0.46-0.08,0.68c-0.01,0.11-0.03,0.2-0.04,0.31
		l-9.9,147.34l-66.86-206.55l379.09-331.39L377.17,728.75z M392,904.42l9.68-144.19l62.52,30.41L392,904.42z M717.37,881.47
		L491.7,771.68c-0.01,0-0.01,0-0.02,0l-80.53-39.18l382.89-489.51c4.62-5.9,3.99-14.36-1.45-19.51c-5.45-5.16-13.92-5.32-19.57-0.39
		L278.4,655.47L75.34,552.51L932.59,69.14L717.37,881.47z"></path>
  <polygon fill="#ed9a39" points="464.2 790.64 392 904.42 401.68 760.23"></polygon>
  <path fill="#ed9a39" d="M676.44,346.13L377.17,728.75c0,0.01-0.01,0.03-0.02,0.04c-0.31,0.4-0.6,0.81-0.86,1.24
		c-0.08,0.13-0.14,0.25-0.21,0.37c-0.18,0.33-0.37,0.65-0.53,0.99c-0.07,0.16-0.14,0.3-0.2,0.46c-0.14,0.32-0.27,0.64-0.39,0.97
		c-0.06,0.16-0.12,0.34-0.17,0.51c-0.1,0.31-0.18,0.62-0.26,0.94c-0.05,0.2-0.09,0.4-0.14,0.6c-0.06,0.29-0.11,0.58-0.15,0.88
		c-0.03,0.23-0.06,0.46-0.08,0.68c-0.01,0.11-0.03,0.2-0.04,0.31l-9.9,147.34l-66.86-206.55L676.44,346.13z"></path>
  <path fill="#f3a741" d="M932.59,69.14L717.37,881.47L491.7,771.68c-0.01,0-0.01,0-0.02,0l-80.53-39.18l382.89-489.51
		c4.62-5.9,3.99-14.36-1.45-19.51c-5.45-5.16-13.92-5.32-19.57-0.39L278.4,655.47L75.34,552.51L932.59,69.14z"></path>
</svg>